<svg width="230" height="164" viewBox="0 0 230 164" fill="none" xmlns="http://www.w3.org/2000/svg">
<path d="M230 142.604H0V142.719H230V142.604Z" fill="#EBEBEB"/>
<path d="M206.954 150.005H191.719V150.12H206.954V150.005Z" fill="#EBEBEB"/>
<path d="M152.361 151.257H148.364V151.372H152.361V151.257Z" fill="#EBEBEB"/>
<path d="M191.259 145.737H182.431V145.852H191.259V145.737Z" fill="#EBEBEB"/>
<path d="M43.999 146.509H24.1316V146.624H43.999V146.509Z" fill="#EBEBEB"/>
<path d="M51.0095 146.509H48.0977V146.624H51.0095V146.509Z" fill="#EBEBEB"/>
<path d="M103.569 148.451H60.4762V148.566H103.569V148.451Z" fill="#EBEBEB"/>
<path d="M124.55 142.107H186.788V50.8524L124.55 50.8524L124.55 142.107Z" fill="#F0F0F0"/>
<path d="M126.748 70.5818H184.589V53.7274L126.748 53.7274V70.5818Z" fill="#E0E0E0"/>
<path d="M181.304 70.5818H184.589V56.4552H181.304V70.5818Z" fill="#EBEBEB"/>
<path d="M165.416 70.5818H168.7V56.4552H165.416V70.5818Z" fill="#EBEBEB"/>
<path d="M144.983 70.0187L148.22 70.5766L150.62 56.6553L147.383 56.0974L144.983 70.0187Z" fill="#EBEBEB"/>
<path d="M177.233 70.5818H180.518V58.3182H177.233V70.5818Z" fill="#EBEBEB"/>
<path d="M169.68 70.5818H172.965V58.3182H169.68V70.5818Z" fill="#EBEBEB"/>
<path d="M150.618 70.5818H153.902V58.3182H150.618V70.5818Z" fill="#EBEBEB"/>
<path d="M158.447 69.8641L161.653 70.5766L164.314 58.6051L161.108 57.8926L158.447 69.8641Z" fill="#EBEBEB"/>
<path d="M174.391 70.5818H176.033V55.756H174.391V70.5818Z" fill="#EBEBEB"/>
<path d="M154.85 70.5818H156.492V55.756H154.85V70.5818Z" fill="#EBEBEB"/>
<path d="M184.589 73.2498H126.748V90.1042H184.589V73.2498Z" fill="#E0E0E0"/>
<path d="M130.033 75.9776H126.748V90.1042H130.033V75.9776Z" fill="#EBEBEB"/>
<path d="M145.921 75.9776H142.637V90.1042H145.921V75.9776Z" fill="#EBEBEB"/>
<path d="M163.962 75.617L160.726 76.1749L163.125 90.0962L166.362 89.5383L163.962 75.617Z" fill="#EBEBEB"/>
<path d="M134.104 77.8406H130.819V90.1042H134.104V77.8406Z" fill="#EBEBEB"/>
<path d="M141.657 77.8406H138.373V90.1042H141.657V77.8406Z" fill="#EBEBEB"/>
<path d="M160.719 77.8406H157.435V90.1042H160.719V77.8406Z" fill="#EBEBEB"/>
<path d="M150.244 77.4099L147.038 78.1225L149.699 90.094L152.905 89.3815L150.244 77.4099Z" fill="#EBEBEB"/>
<path d="M136.947 75.2784H135.304V90.1042H136.947V75.2784Z" fill="#EBEBEB"/>
<path d="M156.487 75.2784H154.845V90.1042H156.487V75.2784Z" fill="#EBEBEB"/>
<path d="M181.304 90.1042H184.589V75.9776H181.304V90.1042Z" fill="#EBEBEB"/>
<path d="M177.233 90.1042H180.518V77.8406H177.233V90.1042Z" fill="#EBEBEB"/>
<path d="M169.68 90.1042H172.965V77.8406H169.68V90.1042Z" fill="#EBEBEB"/>
<path d="M174.391 90.1042H176.033V75.2784H174.391V90.1042Z" fill="#EBEBEB"/>
<path d="M126.748 109.627H184.589V92.7722H126.748V109.627Z" fill="#E0E0E0"/>
<path d="M148.106 109.627H151.391V95.5H148.106V109.627Z" fill="#EBEBEB"/>
<path d="M127.674 109.061L130.911 109.619L133.31 95.6981L130.074 95.1402L127.674 109.061Z" fill="#EBEBEB"/>
<path d="M159.924 109.627H163.208V97.363H159.924V109.627Z" fill="#EBEBEB"/>
<path d="M152.37 109.627H155.655V97.363H152.37V109.627Z" fill="#EBEBEB"/>
<path d="M133.308 109.627H136.592V97.363H133.308V109.627Z" fill="#EBEBEB"/>
<path d="M141.137 108.907L144.343 109.619L147.004 97.6478L143.797 96.9353L141.137 108.907Z" fill="#EBEBEB"/>
<path d="M157.081 109.627H158.723V94.8008H157.081V109.627Z" fill="#EBEBEB"/>
<path d="M137.54 109.627H139.182V94.8008H137.54V109.627Z" fill="#EBEBEB"/>
<path d="M165.479 109.062L168.715 109.62L171.115 95.6991L167.878 95.1412L165.479 109.062Z" fill="#EBEBEB"/>
<path d="M171.111 109.627H174.395V97.363H171.111V109.627Z" fill="#EBEBEB"/>
<path d="M178.943 108.908L182.149 109.621L184.81 97.6493L181.604 96.9367L178.943 108.908Z" fill="#EBEBEB"/>
<path d="M175.338 109.627H176.98V94.8008H175.338V109.627Z" fill="#EBEBEB"/>
<path d="M197.524 50.857H186.788V142.346H197.524V50.857Z" fill="#E0E0E0"/>
<path d="M48.0332 31.2104C48.0332 31.2104 47.495 27.6592 50.0848 25.3776C52.6746 23.096 52.4492 21.7436 51.7086 21.5688C50.968 21.394 50.2872 23.671 49.1464 24.2966C49.1464 24.2966 49.1096 21.049 50.2688 19.853C51.428 18.657 52.0306 15.575 50.9312 15.5198C49.8318 15.4646 49.7168 17.3598 49.4868 18.6846C49.2568 20.0094 48.0332 21.9046 48.0332 21.9046C48.0332 21.9046 47.794 18.9974 47.0442 17.8014C46.2944 16.6054 48.2908 13.8684 47.5042 12.6724C46.7176 11.4764 45.3698 13.758 45.4802 16.3202C45.5906 18.8824 47.3202 21.6194 46.9062 24.2966C46.9062 24.2966 46.1518 22.4152 45.4756 22.245C44.7994 22.0748 44.0956 20.8282 43.6356 20.3682C43.1756 19.9082 42.6098 21.5044 43.6356 22.9856C44.6614 24.4668 47.2834 28.4274 46.8832 31.6336L48.0332 31.2104Z" fill="#E6E6E6"/>
<path d="M49.5834 29.5958L50.4298 34.9226C50.4917 35.3092 50.469 35.7047 50.3632 36.0816C50.2573 36.4586 50.0709 36.8081 49.8168 37.1059C49.5626 37.4038 49.2469 37.6429 48.8913 37.8068C48.5357 37.9707 48.1488 38.0555 47.7572 38.0552H46.8372C46.4453 38.0561 46.0578 37.9719 45.7017 37.8083C45.3456 37.6447 45.0292 37.4056 44.7746 37.1077C44.52 36.8097 44.3331 36.46 44.227 36.0827C44.1209 35.7054 44.098 35.3096 44.16 34.9226L45.0064 29.5958H49.5834Z" fill="#E6E6E6"/>
<path d="M36.7402 39.173L96.7426 39.173V36.091L36.7402 36.091V39.173Z" fill="#E0E0E0"/>
<path d="M91.3375 36.091H93.9825V24.729H91.3375V36.091Z" fill="#EBEBEB"/>
<path d="M78.5589 36.091H81.2039V24.729H78.5589V36.091Z" fill="#EBEBEB"/>
<path d="M62.1139 35.6417L64.7205 36.091L66.6505 24.8942L64.0439 24.4449L62.1139 35.6417Z" fill="#EBEBEB"/>
<path d="M88.0624 36.091H90.7074V26.224H88.0624V36.091Z" fill="#EBEBEB"/>
<path d="M81.9857 36.091H84.6307V26.224H81.9857V36.091Z" fill="#EBEBEB"/>
<path d="M66.6494 36.091H69.2944V26.224H66.6494V36.091Z" fill="#EBEBEB"/>
<path d="M72.9472 35.512L75.5292 36.0858L77.6698 26.4539L75.0878 25.88L72.9472 35.512Z" fill="#EBEBEB"/>
<path d="M85.7807 36.0864H87.101V24.1586H85.7807V36.0864Z" fill="#EBEBEB"/>
<path d="M70.058 36.0864H71.3782V24.1586H70.058V36.0864Z" fill="#EBEBEB"/>
<path d="M96.7472 59.1048H36.7448V62.1868H96.7472V59.1048Z" fill="#E0E0E0"/>
<path d="M42.1498 47.7428H39.5048V59.1048H42.1498V47.7428Z" fill="#EBEBEB"/>
<path d="M54.9332 47.7428H52.2882V59.1048H54.9332V47.7428Z" fill="#EBEBEB"/>
<path d="M69.4459 47.4565L66.8394 47.9058L68.7694 59.1027L71.3759 58.6534L69.4459 47.4565Z" fill="#EBEBEB"/>
<path d="M45.425 49.2378H42.78V59.1048H45.425V49.2378Z" fill="#EBEBEB"/>
<path d="M51.5016 49.2378H48.8566V59.1048H51.5016V49.2378Z" fill="#EBEBEB"/>
<path d="M66.838 49.2378H64.193V59.1048H66.838V49.2378Z" fill="#EBEBEB"/>
<path d="M58.409 48.893L55.827 49.4669L57.9677 59.0988L60.5497 58.525L58.409 48.893Z" fill="#EBEBEB"/>
<path d="M47.7067 47.177H46.3865V59.1048H47.7067V47.177Z" fill="#EBEBEB"/>
<path d="M63.4295 47.177H62.1093V59.1048H63.4295V47.177Z" fill="#EBEBEB"/>
<path d="M90.988 50.1118H78.108V59.0036H90.988V50.1118Z" fill="#EBEBEB"/>
<path d="M159.008 31.1276C163.97 31.1276 167.992 27.1054 167.992 22.1438C167.992 17.1822 163.97 13.16 159.008 13.16C154.047 13.16 150.024 17.1822 150.024 22.1438C150.024 27.1054 154.047 31.1276 159.008 31.1276Z" fill="#E0E0E0"/>
<path d="M159.008 29.7844C163.228 29.7844 166.649 26.3636 166.649 22.1438C166.649 17.924 163.228 14.5032 159.008 14.5032C154.788 14.5032 151.368 17.924 151.368 22.1438C151.368 26.3636 154.788 29.7844 159.008 29.7844Z" fill="#F0F0F0"/>
<path d="M158.649 16.9044V22.245L155.107 20.2394" fill="#F0F0F0"/>
<path d="M158.649 22.705C158.57 22.7038 158.493 22.6832 158.424 22.6452L154.882 20.6396C154.776 20.5797 154.698 20.4802 154.665 20.3629C154.633 20.2456 154.648 20.1202 154.707 20.014C154.737 19.9609 154.777 19.9142 154.825 19.8766C154.872 19.8391 154.927 19.8113 154.986 19.7951C155.044 19.7788 155.106 19.7744 155.166 19.7819C155.226 19.7895 155.285 19.809 155.337 19.8392L158.189 21.4538V16.9044C158.189 16.7824 158.238 16.6654 158.324 16.5791C158.41 16.4928 158.527 16.4444 158.649 16.4444C158.771 16.4444 158.888 16.4928 158.975 16.5791C159.061 16.6654 159.109 16.7824 159.109 16.9044V22.245C159.109 22.367 159.061 22.484 158.975 22.5703C158.888 22.6565 158.771 22.705 158.649 22.705Z" fill="#E0E0E0"/>
<path d="M115 163.378C164.258 163.378 204.189 161.046 204.189 158.17C204.189 155.295 164.258 152.963 115 152.963C65.7421 152.963 25.8107 155.295 25.8107 158.17C25.8107 161.046 65.7421 163.378 115 163.378Z" fill="#F5F5F5"/>
<path d="M194.355 25.4328H102.805V112.115H194.355V25.4328Z" fill="#FF9040"/>
<path opacity="0.7" d="M194.355 25.4328H102.805V112.115H194.355V25.4328Z" fill="white"/>
<path d="M194.355 25.4328H102.805V29.8442H194.355V25.4328Z" fill="#FF9040"/>
<path opacity="0.2" d="M194.355 29.8488H191.328V112.198H194.355V29.8488Z" fill="black"/>
<path opacity="0.6" d="M193.011 31.7992H192.735C192.309 31.7992 191.963 32.1452 191.963 32.572V42.4988C191.963 42.9256 192.309 43.2716 192.735 43.2716H193.011C193.438 43.2716 193.784 42.9256 193.784 42.4988V32.572C193.784 32.1452 193.438 31.7992 193.011 31.7992Z" fill="white"/>
<path opacity="0.2" d="M189.327 86.76H104.687C104.626 86.7588 104.568 86.7342 104.525 86.6913C104.483 86.6484 104.458 86.5906 104.457 86.53C104.457 86.469 104.481 86.4105 104.524 86.3674C104.567 86.3242 104.626 86.3 104.687 86.3H189.327C189.388 86.3 189.446 86.3242 189.489 86.3674C189.533 86.4105 189.557 86.469 189.557 86.53C189.557 86.591 189.533 86.6495 189.489 86.6926C189.446 86.7358 189.388 86.76 189.327 86.76Z" fill="black"/>
<path opacity="0.2" d="M189.327 66.98H104.687C104.626 66.9788 104.568 66.9542 104.525 66.9113C104.483 66.8684 104.458 66.8106 104.457 66.75C104.457 66.689 104.481 66.6305 104.524 66.5874C104.567 66.5442 104.626 66.52 104.687 66.52H189.327C189.388 66.52 189.446 66.5442 189.489 66.5874C189.533 66.6305 189.557 66.689 189.557 66.75C189.557 66.811 189.533 66.8695 189.489 66.9126C189.446 66.9558 189.388 66.98 189.327 66.98Z" fill="black"/>
<path d="M189.331 31.7946H104.71V44.7344H189.331V31.7946Z" fill="#FF9040"/>
<path opacity="0.6" d="M193.301 27.6408C193.301 27.8601 193.236 28.0744 193.114 28.2567C192.993 28.439 192.82 28.5811 192.617 28.665C192.414 28.7489 192.191 28.7709 191.976 28.7281C191.761 28.6853 191.564 28.5797 191.409 28.4247C191.254 28.2697 191.148 28.0721 191.105 27.8571C191.063 27.642 191.085 27.4191 191.168 27.2166C191.252 27.014 191.394 26.8408 191.577 26.719C191.759 26.5972 191.973 26.5322 192.193 26.5322C192.487 26.5322 192.769 26.649 192.977 26.8569C193.185 27.0648 193.301 27.3468 193.301 27.6408Z" fill="white"/>
<path opacity="0.6" d="M189.391 27.6408C189.391 27.8601 189.326 28.0744 189.204 28.2567C189.083 28.439 188.909 28.5811 188.707 28.665C188.504 28.7489 188.281 28.7709 188.066 28.7281C187.851 28.6853 187.654 28.5797 187.499 28.4247C187.344 28.2697 187.238 28.0721 187.195 27.8571C187.153 27.642 187.175 27.4191 187.258 27.2166C187.342 27.014 187.484 26.8408 187.667 26.719C187.849 26.5972 188.063 26.5322 188.283 26.5322C188.577 26.5322 188.859 26.649 189.067 26.8569C189.274 27.0648 189.391 27.3468 189.391 27.6408Z" fill="white"/>
<path opacity="0.6" d="M185.481 27.6408C185.481 27.8601 185.416 28.0744 185.294 28.2567C185.173 28.439 184.999 28.5811 184.797 28.665C184.594 28.7489 184.371 28.7709 184.156 28.7281C183.941 28.6853 183.744 28.5797 183.589 28.4247C183.434 28.2697 183.328 28.0721 183.285 27.8571C183.243 27.642 183.265 27.4191 183.348 27.2166C183.432 27.014 183.574 26.8408 183.757 26.719C183.939 26.5972 184.153 26.5322 184.373 26.5322C184.667 26.5322 184.949 26.649 185.157 26.8569C185.364 27.0648 185.481 27.3468 185.481 27.6408Z" fill="white"/>
<path opacity="0.4" d="M108.335 53.4008C107.799 53.4008 107.275 53.2419 106.829 52.9442C106.384 52.6465 106.036 52.2233 105.831 51.7282C105.626 51.2332 105.573 50.6884 105.677 50.1628C105.782 49.6372 106.04 49.1545 106.419 48.7756C106.798 48.3966 107.28 48.1386 107.806 48.0341C108.332 47.9295 108.876 47.9832 109.371 48.1882C109.866 48.3933 110.29 48.7406 110.587 49.1861C110.885 49.6317 111.044 50.1555 111.044 50.6914C111.043 51.4096 110.757 52.098 110.249 52.6059C109.741 53.1137 109.053 53.3996 108.335 53.4008Z" fill="black"/>
<path d="M108.666 49.661V51.7172H108.206V50.0428H107.796V49.661H108.666Z" fill="white"/>
<path opacity="0.4" d="M185.67 48.0648H113.592C113.303 48.0648 113.068 48.2996 113.068 48.5892V48.9158C113.068 49.2054 113.303 49.4402 113.592 49.4402H185.67C185.959 49.4402 186.194 49.2054 186.194 48.9158V48.5892C186.194 48.2996 185.959 48.0648 185.67 48.0648Z" fill="black"/>
<path opacity="0.4" d="M185.67 51.639H113.592C113.303 51.639 113.068 51.8738 113.068 52.1634V52.49C113.068 52.7796 113.303 53.0144 113.592 53.0144H185.67C185.959 53.0144 186.194 52.7796 186.194 52.49V52.1634C186.194 51.8738 185.959 51.639 185.67 51.639Z" fill="black"/>
<path opacity="0.4" d="M160.738 55.2086H113.592C113.303 55.2086 113.068 55.4434 113.068 55.733V56.0596C113.068 56.3492 113.303 56.584 113.592 56.584H160.738C161.027 56.584 161.262 56.3492 161.262 56.0596V55.733C161.262 55.4434 161.027 55.2086 160.738 55.2086Z" fill="black"/>
<path opacity="0.2" d="M114.328 63.3184C115.022 63.3184 115.584 62.7562 115.584 62.0626C115.584 61.369 115.022 60.8068 114.328 60.8068C113.635 60.8068 113.073 61.369 113.073 62.0626C113.073 62.7562 113.635 63.3184 114.328 63.3184Z" fill="black"/>
<path d="M115.193 62.0626C115.194 62.2349 115.144 62.4037 115.049 62.5473C114.953 62.691 114.818 62.8032 114.659 62.8695C114.5 62.9359 114.324 62.9535 114.155 62.9201C113.986 62.8867 113.831 62.8038 113.709 62.6819C113.587 62.5601 113.504 62.4047 113.471 62.2357C113.437 62.0666 113.455 61.8914 113.521 61.7324C113.588 61.5733 113.7 61.4376 113.844 61.3424C113.987 61.2472 114.156 61.1969 114.328 61.1978C114.558 61.1978 114.778 61.2889 114.94 61.4511C115.102 61.6133 115.193 61.8332 115.193 62.0626Z" fill="white"/>
<path opacity="0.4" d="M130.603 61.3772H118.432C118.142 61.3772 117.907 61.612 117.907 61.9016V62.2282C117.907 62.5178 118.142 62.7526 118.432 62.7526H130.603C130.893 62.7526 131.128 62.5178 131.128 62.2282V61.9016C131.128 61.612 130.893 61.3772 130.603 61.3772Z" fill="black"/>
<path opacity="0.2" d="M141.1 62.035C141.1 62.2834 141.027 62.5262 140.889 62.7327C140.751 62.9392 140.555 63.1002 140.325 63.1952C140.096 63.2903 139.843 63.3151 139.6 63.2667C139.356 63.2182 139.132 63.0986 138.957 62.923C138.781 62.7474 138.661 62.5236 138.613 62.28C138.565 62.0364 138.589 61.7839 138.684 61.5544C138.78 61.325 138.94 61.1288 139.147 60.9908C139.353 60.8529 139.596 60.7792 139.845 60.7792C140.178 60.7792 140.497 60.9115 140.733 61.147C140.968 61.3825 141.1 61.7019 141.1 62.035Z" fill="black"/>
<path d="M140.714 62.035C140.715 62.2071 140.665 62.3757 140.57 62.5193C140.475 62.6628 140.339 62.775 140.18 62.8415C140.022 62.908 139.847 62.9259 139.678 62.8929C139.509 62.8598 139.353 62.7774 139.231 62.656C139.109 62.5346 139.026 62.3797 138.992 62.2109C138.958 62.0421 138.975 61.8671 139.041 61.708C139.107 61.5488 139.218 61.4128 139.361 61.317C139.504 61.2213 139.672 61.1702 139.844 61.1702C140.074 61.1702 140.295 61.2612 140.458 61.4232C140.621 61.5853 140.713 61.8052 140.714 62.035Z" fill="#FF9040"/>
<path opacity="0.4" d="M156.129 61.3496H143.952C143.663 61.3496 143.428 61.5844 143.428 61.874V62.2006C143.428 62.4902 143.663 62.725 143.952 62.725H156.129C156.418 62.725 156.653 62.4902 156.653 62.2006V61.874C156.653 61.5844 156.418 61.3496 156.129 61.3496Z" fill="black"/>
<path opacity="0.2" d="M166.621 62.0074C166.621 62.2558 166.548 62.4986 166.41 62.7051C166.272 62.9116 166.075 63.0726 165.846 63.1676C165.617 63.2627 165.364 63.2875 165.12 63.2391C164.877 63.1906 164.653 63.071 164.477 62.8954C164.302 62.7198 164.182 62.496 164.134 62.2524C164.085 62.0088 164.11 61.7563 164.205 61.5268C164.3 61.2974 164.461 61.1012 164.668 60.9632C164.874 60.8253 165.117 60.7516 165.365 60.7516C165.698 60.7516 166.018 60.8839 166.253 61.1194C166.489 61.3549 166.621 61.6743 166.621 62.0074Z" fill="black"/>
<path d="M166.235 62.0074C166.235 62.1794 166.184 62.3474 166.088 62.4904C165.993 62.6334 165.857 62.7448 165.698 62.8106C165.539 62.8764 165.364 62.8936 165.196 62.8601C165.027 62.8265 164.872 62.7437 164.751 62.6222C164.629 62.5006 164.546 62.3457 164.513 62.177C164.479 62.0084 164.496 61.8336 164.562 61.6747C164.628 61.5158 164.739 61.38 164.882 61.2845C165.025 61.189 165.193 61.138 165.365 61.138C165.596 61.138 165.817 61.2296 165.98 61.3926C166.143 61.5557 166.235 61.7768 166.235 62.0074Z" fill="white"/>
<path opacity="0.4" d="M181.645 61.3174H169.473C169.184 61.3174 168.949 61.5522 168.949 61.8418V62.1684C168.949 62.458 169.184 62.6928 169.473 62.6928H181.645C181.934 62.6928 182.169 62.458 182.169 62.1684V61.8418C182.169 61.5522 181.934 61.3174 181.645 61.3174Z" fill="black"/>
<path opacity="0.4" d="M108.335 76.318C109.831 76.318 111.044 75.105 111.044 73.6086C111.044 72.1122 109.831 70.8992 108.335 70.8992C106.838 70.8992 105.625 72.1122 105.625 73.6086C105.625 75.105 106.838 76.318 108.335 76.318Z" fill="black"/>
<path d="M109.117 74.2664V74.6528H107.566V74.34L108.358 73.5902C108.542 73.4154 108.574 73.3096 108.574 73.213C108.574 73.1164 108.463 72.9554 108.243 72.9554C108.16 72.9526 108.079 72.97 108.005 73.0061C107.931 73.0422 107.868 73.0959 107.819 73.1624L107.474 72.937C107.568 72.8115 107.692 72.7111 107.834 72.6445C107.976 72.5779 108.132 72.5472 108.289 72.5552C108.749 72.5552 109.052 72.7898 109.052 73.1624C109.05 73.29 109.017 73.4151 108.957 73.5278C108.897 73.6405 108.811 73.7375 108.707 73.811L108.247 74.271L109.117 74.2664Z" fill="white"/>
<path opacity="0.4" d="M185.67 70.9958H113.592C113.303 70.9958 113.068 71.2306 113.068 71.5202V71.8468C113.068 72.1364 113.303 72.3712 113.592 72.3712H185.67C185.959 72.3712 186.194 72.1364 186.194 71.8468V71.5202C186.194 71.2306 185.959 70.9958 185.67 70.9958Z" fill="black"/>
<path opacity="0.4" d="M127.291 74.5654H113.592C113.303 74.5654 113.068 74.8002 113.068 75.0898V75.4164C113.068 75.706 113.303 75.9408 113.592 75.9408H127.291C127.581 75.9408 127.816 75.706 127.816 75.4164V75.0898C127.816 74.8002 127.581 74.5654 127.291 74.5654Z" fill="black"/>
<path opacity="0.2" d="M114.328 82.62C115.022 82.62 115.584 82.0578 115.584 81.3642C115.584 80.6706 115.022 80.1084 114.328 80.1084C113.635 80.1084 113.073 80.6706 113.073 81.3642C113.073 82.0578 113.635 82.62 114.328 82.62Z" fill="black"/>
<path d="M114.328 82.2336C114.809 82.2336 115.198 81.8444 115.198 81.3642C115.198 80.8841 114.809 80.4948 114.328 80.4948C113.848 80.4948 113.459 80.8841 113.459 81.3642C113.459 81.8444 113.848 82.2336 114.328 82.2336Z" fill="white"/>
<path opacity="0.4" d="M130.603 80.6788H118.432C118.142 80.6788 117.907 80.9136 117.907 81.2032V81.5298C117.907 81.8194 118.142 82.0542 118.432 82.0542H130.603C130.893 82.0542 131.128 81.8194 131.128 81.5298V81.2032C131.128 80.9136 130.893 80.6788 130.603 80.6788Z" fill="black"/>
<path opacity="0.2" d="M139.845 82.5924C140.538 82.5924 141.1 82.0302 141.1 81.3366C141.1 80.6431 140.538 80.0808 139.845 80.0808C139.151 80.0808 138.589 80.6431 138.589 81.3366C138.589 82.0302 139.151 82.5924 139.845 82.5924Z" fill="black"/>
<path d="M139.845 82.206C140.325 82.206 140.714 81.8167 140.714 81.3366C140.714 80.8564 140.325 80.4672 139.845 80.4672C139.364 80.4672 138.975 80.8564 138.975 81.3366C138.975 81.8167 139.364 82.206 139.845 82.206Z" fill="white"/>
<path opacity="0.4" d="M156.129 80.6466H143.952C143.663 80.6466 143.428 80.8814 143.428 81.171V81.4976C143.428 81.7872 143.663 82.022 143.952 82.022H156.129C156.418 82.022 156.653 81.7872 156.653 81.4976V81.171C156.653 80.8814 156.418 80.6466 156.129 80.6466Z" fill="black"/>
<path opacity="0.2" d="M166.621 81.309C166.621 81.5574 166.548 81.8002 166.41 82.0067C166.272 82.2132 166.075 82.3742 165.846 82.4692C165.617 82.5643 165.364 82.5891 165.12 82.5407C164.877 82.4922 164.653 82.3726 164.477 82.197C164.302 82.0213 164.182 81.7976 164.134 81.554C164.085 81.3104 164.11 81.0579 164.205 80.8284C164.3 80.5989 164.461 80.4028 164.668 80.2648C164.874 80.1268 165.117 80.0532 165.365 80.0532C165.698 80.0532 166.018 80.1855 166.253 80.421C166.489 80.6565 166.621 80.9759 166.621 81.309Z" fill="black"/>
<path d="M166.235 81.309C166.235 81.481 166.184 81.649 166.088 81.792C165.993 81.935 165.857 82.0464 165.698 82.1122C165.539 82.178 165.364 82.1952 165.196 82.1617C165.027 82.1282 164.872 82.0454 164.751 81.9238C164.629 81.8022 164.546 81.6473 164.513 81.4786C164.479 81.31 164.496 81.1352 164.562 80.9763C164.628 80.8174 164.739 80.6817 164.882 80.5861C165.025 80.4906 165.193 80.4396 165.365 80.4396C165.596 80.4396 165.817 80.5312 165.98 80.6942C166.143 80.8573 166.235 81.0784 166.235 81.309Z" fill="#FF9040"/>
<path opacity="0.4" d="M181.645 80.619H169.473C169.184 80.619 168.949 80.8538 168.949 81.1434V81.47C168.949 81.7596 169.184 81.9944 169.473 81.9944H181.645C181.934 81.9944 182.169 81.7596 182.169 81.47V81.1434C182.169 80.8538 181.934 80.619 181.645 80.619Z" fill="black"/>
<path opacity="0.4" d="M108.335 96.2176C107.799 96.2176 107.275 96.0587 106.829 95.761C106.384 95.4633 106.036 95.0401 105.831 94.545C105.626 94.05 105.573 93.5052 105.677 92.9796C105.782 92.454 106.04 91.9713 106.419 91.5924C106.798 91.2134 107.28 90.9554 107.806 90.8509C108.332 90.7463 108.876 90.8 109.371 91.005C109.866 91.2101 110.29 91.5574 110.587 92.0029C110.885 92.4485 111.044 92.9723 111.044 93.5082C111.044 94.2268 110.758 94.9159 110.25 95.424C109.742 95.9321 109.053 96.2176 108.335 96.2176Z" fill="black"/>
<path d="M109.098 93.89C109.098 94.235 108.831 94.5524 108.247 94.5524C107.97 94.5589 107.698 94.482 107.465 94.3316L107.649 93.9682C107.82 94.0884 108.024 94.1527 108.233 94.1522C108.473 94.1522 108.62 94.0556 108.62 93.89C108.62 93.7244 108.505 93.637 108.233 93.637H108.017V93.3242L108.44 92.8642H107.566V92.4824H109.02V92.7906L108.56 93.3196C108.705 93.33 108.841 93.3943 108.94 93.4999C109.04 93.6056 109.096 93.7448 109.098 93.89Z" fill="white"/>
<path opacity="0.4" d="M185.67 90.877H113.592C113.303 90.877 113.068 91.1118 113.068 91.4014V91.728C113.068 92.0176 113.303 92.2524 113.592 92.2524H185.67C185.959 92.2524 186.194 92.0176 186.194 91.728V91.4014C186.194 91.1118 185.959 90.877 185.67 90.877Z" fill="black"/>
<path opacity="0.4" d="M185.67 94.4466H113.592C113.303 94.4466 113.068 94.6814 113.068 94.971V95.2976C113.068 95.5872 113.303 95.822 113.592 95.822H185.67C185.959 95.822 186.194 95.5872 186.194 95.2976V94.971C186.194 94.6814 185.959 94.4466 185.67 94.4466Z" fill="black"/>
<path opacity="0.4" d="M149.698 98.0208H113.592C113.303 98.0208 113.068 98.2556 113.068 98.5452V98.8718C113.068 99.1614 113.303 99.3962 113.592 99.3962H149.698C149.987 99.3962 150.222 99.1614 150.222 98.8718V98.5452C150.222 98.2556 149.987 98.0208 149.698 98.0208Z" fill="black"/>
<path opacity="0.4" d="M140.916 103.706H138.773C138.671 103.706 138.589 103.789 138.589 103.89V106.034C138.589 106.136 138.671 106.218 138.773 106.218H140.916C141.018 106.218 141.1 106.136 141.1 106.034V103.89C141.1 103.789 141.018 103.706 140.916 103.706Z" fill="black"/>
<path d="M140.801 105.919V104.01H138.892V105.919H140.801Z" fill="white"/>
<path opacity="0.4" d="M156.129 104.277H143.952C143.663 104.277 143.428 104.512 143.428 104.801V105.128C143.428 105.417 143.663 105.652 143.952 105.652H156.129C156.418 105.652 156.653 105.417 156.653 105.128V104.801C156.653 104.512 156.418 104.277 156.129 104.277Z" fill="black"/>
<path d="M139.743 105.514C139.729 105.514 139.714 105.512 139.701 105.506C139.687 105.501 139.675 105.492 139.665 105.482L139.205 105.05C139.184 105.027 139.172 104.998 139.172 104.967C139.172 104.936 139.184 104.906 139.205 104.884C139.216 104.873 139.229 104.864 139.243 104.858C139.257 104.852 139.273 104.849 139.288 104.849C139.303 104.849 139.319 104.852 139.333 104.858C139.347 104.864 139.36 104.873 139.371 104.884L139.762 105.238L140.429 104.447C140.448 104.423 140.476 104.408 140.507 104.405C140.538 104.402 140.568 104.411 140.592 104.431C140.616 104.45 140.631 104.479 140.634 104.509C140.637 104.54 140.628 104.57 140.608 104.594L139.84 105.473C139.82 105.495 139.792 105.51 139.762 105.514H139.743Z" fill="#FF9040"/>
<path opacity="0.4" d="M166.437 103.679H164.294C164.192 103.679 164.11 103.761 164.11 103.863V106.006C164.11 106.108 164.192 106.19 164.294 106.19H166.437C166.539 106.19 166.621 106.108 166.621 106.006V103.863C166.621 103.761 166.539 103.679 166.437 103.679Z" fill="black"/>
<path d="M166.318 105.891V103.982H164.409V105.891H166.318Z" fill="white"/>
<path opacity="0.4" d="M181.645 104.245H169.473C169.184 104.245 168.949 104.479 168.949 104.769V105.096C168.949 105.385 169.184 105.62 169.473 105.62H181.645C181.934 105.62 182.169 105.385 182.169 105.096V104.769C182.169 104.479 181.934 104.245 181.645 104.245Z" fill="black"/>
<path d="M165.264 105.487C165.235 105.485 165.208 105.474 165.186 105.454L164.726 105.017C164.713 105.008 164.701 104.996 164.693 104.981C164.685 104.967 164.68 104.951 164.678 104.935C164.677 104.919 164.678 104.902 164.684 104.886C164.689 104.871 164.698 104.857 164.709 104.845C164.72 104.833 164.734 104.823 164.749 104.817C164.765 104.811 164.781 104.808 164.797 104.809C164.814 104.809 164.83 104.814 164.845 104.821C164.859 104.828 164.872 104.839 164.882 104.852L165.269 105.206L165.94 104.415C165.949 104.401 165.961 104.39 165.975 104.381C165.988 104.373 166.004 104.367 166.02 104.365C166.036 104.362 166.052 104.363 166.068 104.368C166.083 104.372 166.098 104.38 166.11 104.39C166.123 104.401 166.133 104.414 166.14 104.428C166.147 104.443 166.151 104.459 166.151 104.475C166.152 104.491 166.149 104.507 166.142 104.522C166.136 104.537 166.127 104.551 166.115 104.562L165.37 105.445C165.348 105.468 165.319 105.482 165.287 105.487H165.264Z" fill="#FF9040"/>
<path opacity="0.4" d="M115.396 103.734H113.252C113.15 103.734 113.068 103.816 113.068 103.918V106.062C113.068 106.163 113.15 106.246 113.252 106.246H115.396C115.497 106.246 115.58 106.163 115.58 106.062V103.918C115.58 103.816 115.497 103.734 115.396 103.734Z" fill="black"/>
<path d="M115.281 105.947V104.038H113.372V105.947H115.281Z" fill="white"/>
<path opacity="0.4" d="M130.603 104.304H118.432C118.142 104.304 117.907 104.539 117.907 104.829V105.155C117.907 105.445 118.142 105.68 118.432 105.68H130.603C130.893 105.68 131.128 105.445 131.128 105.155V104.829C131.128 104.539 130.893 104.304 130.603 104.304Z" fill="black"/>
<path d="M184.407 40.8955C185.832 39.4709 185.832 37.1613 184.407 35.7367C182.982 34.3122 180.673 34.3122 179.248 35.7367C177.824 37.1613 177.824 39.4709 179.248 40.8955C180.673 42.3201 182.982 42.3201 184.407 40.8955Z" fill="white"/>
<path opacity="0.2" d="M185.058 36.62L181.838 38.322V34.6742C182.501 34.6754 183.151 34.8571 183.718 35.1999C184.285 35.5428 184.749 36.0337 185.058 36.62Z" fill="black"/>
<path d="M174.979 150.599C174.979 150.599 176.967 141.201 173.346 136.113C169.726 131.026 176.617 136.054 177.413 140.819C177.413 140.819 178.6 132.3 175.085 126.311C171.571 120.322 178.144 125.234 178.705 131.412C178.705 131.412 179.782 123.813 178.167 119.54C176.553 115.266 179.359 118.017 180.44 120.694C181.521 123.371 180.104 130 180.104 130C180.104 130 182.919 117.741 185.587 118.716C188.255 119.691 181.599 127.723 180.679 131.9C180.679 131.9 183.821 126.279 186.199 127.452C188.577 128.625 182.519 129.204 179.722 137.572L178.751 141.5C178.751 141.5 181.645 135.952 183.535 137.705C185.426 139.458 177.928 142.475 176.175 150.884L174.979 150.599Z" fill="#1E6D33"/>
<path d="M175.371 151.16C175.371 151.16 175.785 139.315 181.64 134.301C187.496 129.287 177.74 133.257 175.371 138.726C175.371 138.726 176.484 128.169 182.473 122.037C188.462 115.906 179.129 119.843 176.622 127.07C176.622 127.07 177.597 117.649 180.803 113.017C184.009 108.385 179.828 110.832 177.74 113.716C175.651 116.6 175.371 124.94 175.371 124.94C175.371 124.94 175.647 109.42 172.151 109.797C168.655 110.174 174.239 121.757 174.101 127.047C174.101 127.047 172.008 119.379 168.806 120.069C165.605 120.759 172.707 123.289 173.544 134.135V139.136C173.544 139.136 171.732 131.628 168.944 133.156C166.157 134.683 174.239 140.543 173.82 151.132L175.371 151.16Z" fill="#1E6D33"/>
<path opacity="0.2" d="M175.371 151.16C175.371 151.16 175.785 139.315 181.64 134.301C187.496 129.287 177.74 133.257 175.371 138.726C175.371 138.726 176.484 128.169 182.473 122.037C188.462 115.906 179.129 119.843 176.622 127.07C176.622 127.07 177.597 117.649 180.803 113.017C184.009 108.385 179.828 110.832 177.74 113.716C175.651 116.6 175.371 124.94 175.371 124.94C175.371 124.94 175.647 109.42 172.151 109.797C168.655 110.174 174.239 121.757 174.101 127.047C174.101 127.047 172.008 119.379 168.806 120.069C165.605 120.759 172.707 123.289 173.544 134.135V139.136C173.544 139.136 171.732 131.628 168.944 133.156C166.157 134.683 174.239 140.543 173.82 151.132L175.371 151.16Z" fill="white"/>
<path d="M178.259 159.481H171.166C169.824 159.481 168.537 158.948 167.588 157.999C166.639 157.05 166.106 155.763 166.106 154.421V153.469H183.315V154.421C183.315 155.763 182.782 157.049 181.834 157.998C180.886 158.947 179.601 159.48 178.259 159.481Z" fill="#FF9040"/>
<path d="M165.793 155.378H183.632C184.702 155.378 185.569 154.511 185.569 153.442V151.933C185.569 150.863 184.702 149.996 183.632 149.996H165.793C164.724 149.996 163.857 150.863 163.857 151.933V153.442C163.857 154.511 164.724 155.378 165.793 155.378Z" fill="#FF9040"/>
<path opacity="0.2" d="M165.793 155.378H183.632C184.702 155.378 185.569 154.511 185.569 153.442V151.933C185.569 150.863 184.702 149.996 183.632 149.996H165.793C164.724 149.996 163.857 150.863 163.857 151.933V153.442C163.857 154.511 164.724 155.378 165.793 155.378Z" fill="white"/>
<path d="M78.9866 94.7962C78.9223 94.9291 78.8946 95.0767 78.9061 95.2239C78.9177 95.3711 78.9682 95.5126 79.0525 95.6339C79.1367 95.7551 79.2517 95.8518 79.3856 95.9139C79.5196 95.9761 79.6676 96.0015 79.8146 95.9876H101.6C101.962 95.9702 102.312 95.8484 102.606 95.637C102.901 95.4257 103.128 95.1337 103.261 94.7962L107.861 81.5022C107.907 81.3785 107.93 81.2477 107.93 81.1158C107.929 81.0023 107.905 80.8902 107.858 80.7867C107.812 80.6832 107.744 80.5906 107.659 80.5148C107.575 80.439 107.476 80.3817 107.368 80.3466C107.26 80.3114 107.146 80.2993 107.033 80.3108H85.261C84.8989 80.3283 84.5494 80.45 84.2548 80.6614C83.9602 80.8727 83.733 81.1647 83.6004 81.5022L78.9866 94.7962Z" fill="#263238"/>
<path d="M101.766 95.3206C101.944 95.3124 102.115 95.2528 102.259 95.1491C102.404 95.0454 102.515 94.9021 102.58 94.7364L107.18 81.4424C107.199 81.3894 107.209 81.3332 107.208 81.2768C107.208 81.0928 107.074 80.9778 106.863 80.9778H85.1C84.9224 80.9861 84.7509 81.0456 84.6064 81.1493C84.4619 81.253 84.3506 81.3964 84.2858 81.562L79.6858 94.856C79.6623 94.9097 79.6521 94.9683 79.6561 95.0267C79.6601 95.0852 79.6782 95.1418 79.7088 95.1918C79.7432 95.2362 79.7882 95.2712 79.8396 95.2937C79.8911 95.3162 79.9473 95.3255 80.0032 95.3206H101.766Z" fill="#FF9040"/>
<path opacity="0.8" d="M101.766 95.3206C101.944 95.3124 102.115 95.2528 102.259 95.1491C102.404 95.0454 102.515 94.9021 102.58 94.7364L107.18 81.4424C107.199 81.3894 107.209 81.3332 107.208 81.2768C107.208 81.0928 107.074 80.9778 106.863 80.9778H85.1C84.9224 80.9861 84.7509 81.0456 84.6064 81.1493C84.4619 81.253 84.3506 81.3964 84.2858 81.562L79.6858 94.856C79.6623 94.9097 79.6521 94.9683 79.6561 95.0267C79.6601 95.0852 79.6782 95.1418 79.7088 95.1918C79.7432 95.2362 79.7882 95.2712 79.8396 95.2937C79.8911 95.3162 79.9473 95.3255 80.0032 95.3206H101.766Z" fill="white"/>
<path d="M69.6625 95.0032V95.615L73.9773 96.7236H101.499C101.703 96.7236 101.898 96.6427 102.042 96.4986C102.186 96.3545 102.267 96.1591 102.267 95.9554V95.0032H69.6625Z" fill="#263238"/>
<path opacity="0.2" d="M92.6901 95.0032V95.615L97.0095 96.7236H73.9773L69.6625 95.615V95.0032H92.6901Z" fill="white"/>
<g opacity="0.2">
<path d="M105.809 84.1012H83.7889L84.6445 81.7H106.665L105.809 84.1012Z" fill="#FF9040"/>
</g>
<g opacity="0.1">
<path d="M104.705 87.1924H82.685C82.6206 87.1924 82.5884 87.1418 82.6114 87.0728C82.6239 87.0404 82.6452 87.0121 82.6728 86.991C82.7004 86.9699 82.7333 86.9568 82.7678 86.9532H104.793C104.852 86.9532 104.885 87.0084 104.862 87.0728C104.851 87.1061 104.83 87.1354 104.802 87.1567C104.774 87.1781 104.74 87.1905 104.705 87.1924Z" fill="black"/>
</g>
<g opacity="0.1">
<path d="M103.5 90.5642H81.4798C81.4154 90.5642 81.3832 90.509 81.4062 90.4446C81.4191 90.4116 81.441 90.3828 81.4695 90.3616C81.498 90.3405 81.5318 90.3278 81.5672 90.325H103.587C103.652 90.325 103.684 90.3756 103.661 90.4446C103.648 90.4777 103.626 90.5064 103.598 90.5276C103.569 90.5487 103.535 90.5614 103.5 90.5642Z" fill="black"/>
</g>
<g opacity="0.1">
<path d="M102.299 93.936H80.2793C80.2149 93.936 80.1827 93.8808 80.2057 93.8164C80.2165 93.7825 80.2371 93.7526 80.265 93.7305C80.2928 93.7084 80.3266 93.6951 80.3621 93.6922H102.382C102.447 93.6922 102.479 93.7474 102.456 93.8164C102.444 93.8491 102.423 93.8777 102.395 93.8989C102.367 93.92 102.334 93.9329 102.299 93.936Z" fill="black"/>
</g>
<path d="M94.9763 159.426H97.3729L101.683 99.4238H98.4999L94.9763 159.426Z" fill="#263238"/>
<path opacity="0.2" d="M94.9717 159.426H97.3729L101.471 102.405L101.683 99.5204H98.4999L98.3297 102.405L94.9717 159.426Z" fill="white"/>
<path opacity="0.2" d="M98.3296 102.262H101.471L101.683 99.5204H98.4998L98.3296 102.262Z" fill="black"/>
<path d="M77.372 159.426H79.7686L80.1596 99.4238H76.981L77.372 159.426Z" fill="#263238"/>
<path opacity="0.3" d="M76.9764 99.5204L77.0408 109.199L77.3674 159.426H79.7686L80.0998 109.199L80.1596 99.5204H76.9764Z" fill="white"/>
<path opacity="0.2" d="M76.9764 99.5204L77.0408 109.309H80.0998L80.1596 99.5204H76.9764Z" fill="black"/>
<path d="M51.9064 159.426H54.303L58.6132 99.4238H55.43L51.9064 159.426Z" fill="#263238"/>
<path opacity="0.3" d="M51.9064 159.426H54.303L58.4062 102.405L58.6132 99.5204H55.43L55.2598 102.405L51.9064 159.426Z" fill="white"/>
<path opacity="0.2" d="M55.2598 102.262H58.4062L58.6132 99.5204H55.43L55.2598 102.262Z" fill="black"/>
<path d="M122.415 159.426H124.812L121.288 99.4238H118.105L122.415 159.426Z" fill="#263238"/>
<path opacity="0.3" d="M118.105 99.5204L118.317 102.405L122.415 159.426H124.812L121.458 102.405L121.288 99.5204H118.105Z" fill="white"/>
<path opacity="0.2" d="M121.288 99.5204H118.105L118.317 102.262H121.458L121.288 99.5204Z" fill="black"/>
<path d="M122.815 100.928H53.8982C53.7678 100.928 53.6385 100.902 53.518 100.852C53.3975 100.802 53.2879 100.729 53.1957 100.637C53.1034 100.545 53.0302 100.435 52.9803 100.315C52.9303 100.194 52.9046 100.065 52.9046 99.9344V97.9242L123.818 97.9242V99.9344C123.818 100.066 123.792 100.196 123.742 100.317C123.691 100.438 123.617 100.548 123.524 100.64C123.431 100.733 123.32 100.806 123.198 100.855C123.077 100.904 122.947 100.929 122.815 100.928Z" fill="#FF9040"/>
<path opacity="0.2" d="M52.9093 99.4238L123.809 99.4238V97.9196L52.9093 97.9196V99.4238Z" fill="black"/>
<path d="M51.4234 98.3106H125.295C125.519 98.3106 125.735 98.2214 125.893 98.0627C126.052 97.904 126.141 97.6887 126.141 97.4642C126.141 97.2397 126.052 97.0244 125.893 96.8657C125.735 96.707 125.519 96.6178 125.295 96.6178H51.4234C51.1989 96.6178 50.9837 96.707 50.8249 96.8657C50.6662 97.0244 50.577 97.2397 50.577 97.4642C50.577 97.6887 50.6662 97.904 50.8249 98.0627C50.9837 98.2214 51.1989 98.3106 51.4234 98.3106Z" fill="#FF9040"/>
<path d="M122.935 94.488C122.967 95.2184 122.834 95.9466 122.544 96.6178H105.713V96.2176H106.053V92.74H105.713V92.3398H122.544C122.832 93.018 122.966 93.7518 122.935 94.488Z" fill="#263238"/>
<path opacity="0.2" d="M122.935 94.488C122.967 95.2184 122.834 95.9466 122.544 96.6178H105.713V96.2176H106.053V92.74H105.713V92.3398H122.544C122.832 93.018 122.966 93.7518 122.935 94.488Z" fill="white"/>
<path opacity="0.2" d="M113.928 94.488C113.961 95.2184 113.827 95.9466 113.537 96.6178H105.717V96.2176H106.058V92.74H105.717V92.3398H113.537C113.825 93.018 113.959 93.7518 113.928 94.488Z" fill="black"/>
<path opacity="0.8" d="M113.1 94.488C113.127 95.0811 113.018 95.6725 112.783 96.2176H106.053V92.74H112.783C113.017 93.2921 113.125 93.889 113.1 94.488Z" fill="white"/>
<path opacity="0.6" d="M120.194 94.488C120.226 95.2184 120.092 95.9466 119.803 96.6178H116.67C116.96 95.9466 117.093 95.2184 117.061 94.488C117.089 93.7564 116.956 93.0276 116.67 92.3536H119.803C120.089 93.0276 120.222 93.7564 120.194 94.488Z" fill="white"/>
<path d="M124.435 90.2238C124.467 90.9542 124.333 91.6824 124.044 92.3536H107.212V91.9534H107.553V88.4896H107.212V88.0894H124.044C124.329 88.7636 124.462 89.4923 124.435 90.2238Z" fill="#FF9040"/>
<path opacity="0.2" d="M115.428 90.2238C115.46 90.9542 115.326 91.6824 115.037 92.3536H107.217V91.9534H107.557V88.4896H107.217V88.0894H115.037C115.322 88.7636 115.455 89.4923 115.428 90.2238Z" fill="black"/>
<path opacity="0.8" d="M114.6 90.2238C114.626 90.8169 114.518 91.4083 114.282 91.9534H107.553V88.4896H114.282C114.514 89.0374 114.622 89.6294 114.6 90.2238Z" fill="white"/>
<path opacity="0.2" d="M121.693 90.2238C121.725 90.9542 121.592 91.6824 121.302 92.3536H118.169C118.459 91.6824 118.593 90.9542 118.56 90.2238C118.588 89.4923 118.455 88.7636 118.169 88.0894H121.302C121.587 88.7636 121.721 89.4923 121.693 90.2238Z" fill="black"/>
<path d="M67.965 149.168L66.4838 156.022L62.974 155.962L64.4414 149.168H67.965Z" fill="#EBB376"/>
<path opacity="0.2" d="M67.9696 149.168L67.2336 152.558L63.756 152.324L64.4414 149.168H67.9696Z" fill="black"/>
<path d="M67.0128 155.847H67.0864C67.0864 155.847 67.1646 155.875 67.1738 155.884C67.1781 155.886 67.1829 155.887 67.1876 155.887C67.1924 155.887 67.1971 155.886 67.2014 155.884C67.5001 155.98 67.8088 156.042 68.1214 156.068C68.3526 156.111 68.5913 156.063 68.7884 155.935C68.8532 155.88 68.9001 155.806 68.923 155.724C68.946 155.643 68.9439 155.556 68.9172 155.475C68.9108 155.422 68.8914 155.372 68.861 155.329C68.8305 155.285 68.7898 155.25 68.7424 155.226C68.4064 155.171 68.0615 155.234 67.7672 155.406C67.9755 155.19 68.0981 154.905 68.1122 154.605C68.0993 154.535 68.0635 154.47 68.0103 154.422C67.957 154.374 67.8894 154.345 67.8178 154.339C67.7498 154.326 67.68 154.328 67.6128 154.344C67.5456 154.36 67.4823 154.389 67.4268 154.431C67.0588 154.748 66.999 155.742 66.999 155.811L67.0128 155.847ZM67.39 155.645L67.321 155.686C67.2989 155.307 67.4024 154.93 67.6154 154.615C67.6392 154.592 67.6674 154.574 67.6983 154.563C67.7292 154.552 67.7621 154.548 67.7948 154.55H67.8362C67.9512 154.55 67.9788 154.628 67.9788 154.679C67.9035 155.061 67.6948 155.403 67.39 155.645ZM67.4406 155.82C67.8638 155.585 68.4664 155.332 68.6918 155.433C68.7145 155.445 68.734 155.462 68.7485 155.483C68.763 155.504 68.7719 155.528 68.7746 155.553C68.7874 155.604 68.7869 155.657 68.7732 155.708C68.7595 155.759 68.7331 155.805 68.6964 155.843C68.54 155.99 68.08 155.981 67.4406 155.82Z" fill="#FF9040"/>
<path d="M66.9301 155.42L62.9971 155.176C62.9644 155.172 62.9313 155.175 62.8997 155.184C62.8681 155.193 62.8386 155.208 62.8129 155.229C62.7873 155.249 62.7659 155.274 62.7502 155.303C62.7344 155.332 62.7245 155.364 62.7211 155.397L62.3347 158.502C62.3258 158.665 62.3809 158.825 62.4883 158.947C62.5958 159.07 62.747 159.146 62.9097 159.159C64.2897 159.219 64.9429 159.182 66.6725 159.274C68.2092 159.438 69.7556 159.493 71.3001 159.44C72.7675 159.297 72.5881 157.848 71.9533 157.779C70.4537 157.609 68.4665 156.505 67.5235 155.668C67.3585 155.522 67.1499 155.435 66.9301 155.42Z" fill="#263238"/>
<path d="M88.5133 149.168L87.0321 156.022L83.5177 155.962L84.9897 149.168H88.5133Z" fill="#EBB376"/>
<path opacity="0.2" d="M88.5132 149.168L87.7772 152.558L84.2996 152.324L84.985 149.168H88.5132Z" fill="black"/>
<path d="M87.5564 155.847H87.63C87.63 155.847 87.7082 155.875 87.722 155.884C87.7263 155.886 87.7311 155.887 87.7358 155.887C87.7406 155.887 87.7453 155.886 87.7496 155.884C88.0485 155.98 88.3571 156.041 88.6696 156.068C88.9023 156.112 89.1429 156.064 89.3412 155.935C89.4052 155.879 89.4512 155.806 89.4733 155.724C89.4954 155.642 89.4927 155.555 89.4654 155.475C89.4602 155.422 89.4414 155.371 89.4108 155.328C89.3801 155.284 89.3387 155.249 89.2906 155.226C88.9546 155.171 88.6097 155.234 88.3154 155.406C88.523 155.189 88.6468 154.905 88.665 154.605C88.6505 154.535 88.6136 154.471 88.5597 154.423C88.5058 154.374 88.4379 154.345 88.366 154.339C88.298 154.327 88.2283 154.329 88.1611 154.345C88.0939 154.36 88.0306 154.39 87.975 154.431C87.607 154.748 87.5472 155.742 87.5472 155.811L87.5564 155.847ZM87.9336 155.645L87.8646 155.686C87.8449 155.307 87.9481 154.931 88.159 154.615C88.1829 154.592 88.2112 154.575 88.242 154.564C88.2729 154.553 88.3057 154.548 88.3384 154.55H88.3798C88.4948 154.55 88.5224 154.628 88.527 154.679C88.4476 155.06 88.2377 155.402 87.9336 155.645ZM87.9842 155.82C88.4074 155.585 89.01 155.332 89.2354 155.433C89.2582 155.445 89.2776 155.462 89.2921 155.483C89.3066 155.504 89.3156 155.528 89.3182 155.553C89.3316 155.604 89.3318 155.657 89.3189 155.707C89.3061 155.758 89.2805 155.805 89.2446 155.843C89.0652 155.99 88.6052 155.981 87.9842 155.82Z" fill="#FF9040"/>
<path d="M87.4735 155.42L83.5405 155.176C83.5079 155.172 83.4748 155.175 83.4432 155.184C83.4116 155.193 83.3821 155.208 83.3564 155.229C83.3307 155.249 83.3094 155.274 83.2936 155.303C83.2778 155.332 83.268 155.364 83.2645 155.397L82.8781 158.502C82.8692 158.665 82.9244 158.825 83.0318 158.947C83.1392 159.07 83.2904 159.146 83.4531 159.159C84.8331 159.219 85.4863 159.182 87.2159 159.274C88.7515 159.433 90.2963 159.484 91.8389 159.426C93.3063 159.284 93.1269 157.835 92.4967 157.766C90.9925 157.595 89.0053 156.491 88.0669 155.654C87.9001 155.513 87.6917 155.431 87.4735 155.42Z" fill="#263238"/>
<path d="M74.2624 136.123C72.9256 141.278 71.216 146.33 69.1472 151.238L62.7348 150.751C62.7348 150.751 65.366 140.474 66.3182 131.063C66.907 125.253 66.8564 120.446 65.1544 120.073C64.0826 119.834 61.5802 119.843 58.3694 119.917V107.957C67.3762 109.797 76.337 113.293 77.0178 116.09C77.97 120.032 76.3048 128.367 74.2624 136.123Z" fill="#FF9040"/>
<path opacity="0.4" d="M74.2624 136.123C72.9256 141.278 71.216 146.33 69.1472 151.238L62.7348 150.751C62.7348 150.751 65.366 140.474 66.3182 131.063C66.907 125.253 66.8564 120.446 65.1544 120.073C64.0826 119.834 61.5802 119.843 58.3694 119.917V107.957C67.3762 109.797 76.337 113.293 77.0178 116.09C77.97 120.032 76.3048 128.367 74.2624 136.123Z" fill="white"/>
<path opacity="0.2" d="M74.2624 136.123C71.8704 134.605 69.069 132.824 66.3182 131.063C66.907 125.253 66.8564 120.446 65.1544 120.073C64.0826 119.834 61.5802 119.843 58.3694 119.917V107.957C67.3762 109.797 76.337 113.293 77.0178 116.09C77.97 120.032 76.3048 128.367 74.2624 136.123Z" fill="black"/>
<path d="M70.7572 106.784L71.323 102.244L52.969 99.2214C52.969 99.2214 46.966 111.14 49.9054 116.945C52.5964 122.29 81.282 119.107 85.698 120.069C90.114 121.03 83.26 150.746 83.26 150.746L89.7 151.238C89.7 151.238 99.6084 124.503 97.5706 116.094C96.6736 112.428 81.5488 107.57 70.7572 106.784Z" fill="#FF9040"/>
<path opacity="0.6" d="M70.7572 106.784L71.323 102.244L52.969 99.2214C52.969 99.2214 46.966 111.14 49.9054 116.945C52.5964 122.29 81.282 119.107 85.698 120.069C90.114 121.03 83.26 150.746 83.26 150.746L89.7 151.238C89.7 151.238 99.6084 124.503 97.5706 116.094C96.6736 112.428 81.5488 107.57 70.7572 106.784Z" fill="white"/>
<path d="M80.8541 69.8504C80.6977 70.1218 80.7161 70.43 80.8955 70.5312C81.0749 70.6324 81.3555 70.4944 81.4981 70.2184C81.6407 69.9424 81.6361 69.6434 81.4613 69.5376C81.2865 69.4318 81.0243 69.5882 80.8541 69.8504Z" fill="#263238"/>
<path d="M80.5643 68.383C80.5265 68.3645 80.4947 68.3358 80.4723 68.3002C80.4548 68.2549 80.455 68.2046 80.4729 68.1594C80.4908 68.1142 80.5251 68.0774 80.5689 68.0564C80.8365 67.9343 81.1294 67.8781 81.4231 67.8925C81.7168 67.9069 82.0028 67.9915 82.2571 68.1392C82.2973 68.1648 82.326 68.205 82.3372 68.2513C82.3483 68.2977 82.3411 68.3465 82.3169 68.3876C82.289 68.4278 82.2465 68.4556 82.1984 68.4651C82.1503 68.4745 82.1004 68.4649 82.0593 68.4382C81.8576 68.3249 81.6319 68.2613 81.4007 68.2525C81.1696 68.2437 80.9397 68.29 80.7299 68.3876C80.7039 68.3998 80.6754 68.4058 80.6466 68.405C80.6178 68.4042 80.5897 68.3967 80.5643 68.383Z" fill="#263238"/>
<path d="M81.1118 69.5008C80.9608 70.5234 80.95 71.5618 81.0796 72.5874C80.8159 72.6123 80.5499 72.58 80.2998 72.4927C80.0498 72.4054 79.8215 72.2651 79.6306 72.0814L81.1118 69.5008Z" fill="#DE5753"/>
<path d="M79.465 73.3464C79.3546 73.4798 79.2442 73.6086 79.1246 73.7282C78.4539 74.4319 77.5839 74.9135 76.6314 75.1082C76.3903 75.1584 76.1458 75.1907 75.9 75.2048C75.2542 75.2479 74.6069 75.1463 74.0053 74.9076C73.4037 74.6689 72.8629 74.299 72.4224 73.8248C72.0271 73.3927 71.7222 72.886 71.5254 72.3344C70.6698 70.0344 71.5254 68.1944 72.772 65.0158C73.047 64.2645 73.5097 63.5961 74.1161 63.0742C74.7225 62.5523 75.4524 62.1943 76.2363 62.0343C77.0202 61.8743 77.832 61.9176 78.5944 62.1601C79.3569 62.4026 80.0445 62.8362 80.592 63.4196C83.0852 66.0232 81.42 70.8486 79.465 73.3464Z" fill="#E4897B"/>
<path opacity="0.2" d="M76.6314 75.099C76.3903 75.1492 76.1458 75.1815 75.9 75.1956C75.2542 75.2387 74.6069 75.1371 74.0053 74.8984C73.4037 74.6597 72.8629 74.2898 72.4224 73.8156C72.7318 73.5045 73.0796 73.234 73.4574 73.0106C74.6929 73.3898 75.7942 74.1144 76.6314 75.099Z" fill="black"/>
<path d="M66.2676 75.2186C66.5804 77.4726 71.5024 78.3144 71.5024 78.3144C71.5024 78.3144 73.9312 79.4184 74.0324 78.457C73.025 77.2932 72.9146 76.2766 73.2642 75.3888C73.4949 74.8506 73.8312 74.3641 74.2532 73.9582C74.4802 73.7246 74.7198 73.5034 74.9708 73.2958L73.4666 67.1318C72.3856 69.4732 68.6872 74.8874 66.2676 75.2186Z" fill="#E4897B"/>
<path d="M80.3114 61.6532C80.3114 61.6532 81.3648 61.5198 82.1514 63.4932C82.8322 65.1446 81.2314 65.5034 81.3004 67.2606C81.3694 69.0178 79.7686 69.9884 79.7686 69.9884C79.7686 69.9884 78.4162 71.1522 77.2708 70.522C77.2708 70.522 75.7712 71.258 75.3756 72.5414C74.98 73.8248 72.657 71.5064 70.564 71.8606C70.564 71.8606 69.1518 70.5358 69.253 67.325C69.3338 65.9306 69.6755 64.5637 70.2604 63.2954C70.5382 62.6241 70.9469 62.0147 71.4626 61.503C71.9783 60.9912 72.5907 60.5872 73.2642 60.3146C75.6746 59.2382 79.8652 60.0478 80.3114 61.6532Z" fill="#263238"/>
<path d="M76.9994 69.5652C76.9282 69.8834 76.9284 70.2135 77 70.5316C77.0716 70.8498 77.2128 71.1481 77.4134 71.4052C77.924 71.9618 78.7428 71.2534 79.0786 70.2782C79.3638 69.4088 79.465 68.0472 78.7152 67.8954C77.9654 67.7436 77.1604 68.6268 76.9994 69.5652Z" fill="#E4897B"/>
<path d="M73.4666 76.042C72.1116 74.8444 70.4388 74.0648 68.6504 73.7972C67.8689 73.7009 67.0778 73.8699 66.4038 74.2769C65.7299 74.684 65.2121 75.3055 64.9336 76.042L73.186 77.7118L73.4666 76.042Z" fill="#FF9040"/>
<path d="M72.0636 93.4576L75.4262 93.959C76.1912 93.7205 76.9765 93.5526 77.7722 93.4576C78.637 93.3843 79.5064 93.3843 80.3712 93.4576C80.3712 93.4576 81.88 94.028 81.88 95.5C81.88 95.5 78.3288 96.4522 76.9672 95.8818L72.0636 95.5V93.4576Z" fill="#E4897B"/>
<path opacity="0.2" d="M72.0636 93.4576L75.4262 93.959C76.1912 93.7205 76.9765 93.5526 77.7722 93.4576C78.637 93.3843 79.5064 93.3843 80.3712 93.4576C80.3712 93.4576 81.88 94.028 81.88 95.5C81.88 95.5 78.3288 96.4522 76.9672 95.8818L72.0636 95.5V93.4576Z" fill="black"/>
<path d="M77.5285 77.1C76.8446 79.0136 76.2313 80.8536 75.6885 82.62C75.3389 83.7148 75.0215 84.7866 74.7317 85.84C74.4833 86.7094 74.2717 87.5512 74.0463 88.37C73.9451 88.761 73.8439 89.152 73.7473 89.5384C73.2183 91.6544 72.7905 93.591 72.4547 95.293C71.8954 97.972 71.4808 100.679 71.2127 103.403L52.3527 101.043C53.0059 97.8 53.5165 94.971 54.2295 91.9166C54.6205 90.2422 55.0713 88.5034 55.6463 86.5944C56.0511 85.2144 56.5203 83.7654 57.0815 82.183C58.9721 76.7504 60.7201 75.2462 60.7201 75.2462C67.9605 74.0548 77.5285 77.1 77.5285 77.1Z" fill="#FF9040"/>
<path d="M83.8027 93.8072L87.1653 94.3132C87.9299 94.0719 88.7153 93.9025 89.5113 93.8072C90.3762 93.7366 91.2454 93.7366 92.1103 93.8072C92.1103 93.8072 93.6329 94.3776 93.6329 95.8358C93.6329 95.8358 90.0817 96.788 88.7155 96.2176L83.8027 95.8358V93.8072Z" fill="#E4897B"/>
<path d="M62.054 151.05L69.69 151.556L70.8124 148.257L62.399 147.862L62.054 151.05Z" fill="#FF9040"/>
<path opacity="0.2" d="M62.054 151.05L69.69 151.556L70.8124 148.257L62.399 147.862L62.054 151.05Z" fill="white"/>
<path d="M82.5977 151.05L90.2337 151.556L91.3561 148.257L82.9427 147.862L82.5977 151.05Z" fill="#FF9040"/>
<path opacity="0.2" d="M82.5977 151.05L90.2337 151.556L91.3561 148.257L82.9427 147.862L82.5977 151.05Z" fill="white"/>
<path d="M52.2928 101.287L60.7982 102.405L61.0742 101.149L52.555 99.9114L52.2928 101.287Z" fill="black"/>
<path d="M61.7826 101.158L61.6768 102.405L69.5382 103.486V102.253L61.7826 101.158Z" fill="black"/>
<path d="M70.0258 102.322V103.486L71.1666 103.637V102.51L70.0258 102.322Z" fill="black"/>
<path opacity="0.2" d="M75.6838 82.62C75.3342 83.7148 75.0168 84.7866 74.727 85.84C74.4786 86.7094 74.267 87.5512 74.0416 88.37C73.4528 85.15 74.5016 81.2998 74.5016 81.2998L75.6838 82.62Z" fill="black"/>
<path d="M76.9579 78.1856C78.4943 78.4938 79.2901 89.1658 79.6305 90.578C79.9295 91.8108 87.1653 94.3132 87.1653 94.3132V96.0474C87.1653 96.0474 79.1613 95.5 77.2799 94.7272C75.3985 93.9544 74.2623 83.4158 74.2623 83.4158L76.9579 78.1856Z" fill="#E4897B"/>
<g opacity="0.2">
<path d="M77.5285 77.1C76.8446 79.0136 76.2313 80.8536 75.6885 82.62C75.3389 83.7148 75.0215 84.7866 74.7317 85.84C74.4833 86.7094 74.2717 87.5512 74.0463 88.37C73.9451 88.761 73.8439 89.152 73.7473 89.5384C73.2183 91.6544 72.7905 93.591 72.4547 95.293C71.8954 97.972 71.4808 100.679 71.2127 103.403L52.3527 101.043C53.0059 97.8 53.5165 94.971 54.2295 91.9166C54.6205 90.2422 55.0713 88.5034 55.6463 86.5944C56.0511 85.2144 56.5203 83.7654 57.0815 82.183C58.9721 76.7504 60.7201 75.2462 60.7201 75.2462C67.9605 74.0548 77.5285 77.1 77.5285 77.1Z" fill="white"/>
</g>
<path d="M77.5284 77.1C78.936 77.56 79.6306 86.76 79.6306 86.76L74.52 87.4362L73.462 83.655C73.462 83.655 73.8852 81.8702 74.4924 79.998C75.3756 77.284 77.5284 77.1 77.5284 77.1Z" fill="#FF9040"/>
<path d="M44.5602 157.858C44.5602 157.537 44.4651 157.224 44.287 156.958C44.1088 156.691 43.8557 156.484 43.5596 156.361C43.2634 156.239 42.9376 156.207 42.6234 156.27C42.3092 156.333 42.0207 156.487 41.7944 156.714C41.5681 156.941 41.4143 157.23 41.3523 157.545C41.2904 157.859 41.3231 158.185 41.4464 158.48C41.5696 158.776 41.7779 159.029 42.0447 159.206C42.3116 159.384 42.6251 159.478 42.9456 159.477C43.158 159.477 43.3683 159.435 43.5645 159.353C43.7607 159.272 43.9389 159.153 44.0889 159.002C44.2389 158.852 44.3577 158.673 44.4386 158.477C44.5195 158.28 44.5608 158.07 44.5602 157.858Z" fill="#263238"/>
<path opacity="0.2" d="M44.5602 157.858C44.5602 157.537 44.4651 157.224 44.287 156.958C44.1088 156.691 43.8557 156.484 43.5596 156.361C43.2634 156.239 42.9376 156.207 42.6234 156.27C42.3092 156.333 42.0207 156.487 41.7944 156.714C41.5681 156.941 41.4143 157.23 41.3523 157.545C41.2904 157.859 41.3231 158.185 41.4464 158.48C41.5696 158.776 41.7779 159.029 42.0447 159.206C42.3116 159.384 42.6251 159.478 42.9456 159.477C43.158 159.477 43.3683 159.435 43.5645 159.353C43.7607 159.272 43.9389 159.153 44.0889 159.002C44.2389 158.852 44.3577 158.673 44.4386 158.477C44.5195 158.28 44.5608 158.07 44.5602 157.858Z" fill="white"/>
<path d="M83.4808 157.858C83.4808 157.537 83.3859 157.224 83.208 156.958C83.03 156.692 82.7771 156.484 82.4813 156.362C82.1854 156.239 81.8598 156.207 81.5457 156.27C81.2317 156.332 80.9431 156.486 80.7167 156.713C80.4902 156.939 80.336 157.228 80.2735 157.542C80.2111 157.856 80.2431 158.181 80.3657 158.477C80.4882 158.773 80.6958 159.026 80.9621 159.204C81.2283 159.382 81.5414 159.477 81.8616 159.477C82.0744 159.477 82.2853 159.436 82.482 159.355C82.6787 159.274 82.8575 159.154 83.0079 159.004C83.1584 158.853 83.2777 158.675 83.3588 158.478C83.44 158.281 83.4814 158.07 83.4808 157.858Z" fill="#263238"/>
<path opacity="0.2" d="M83.4808 157.858C83.4808 157.537 83.3859 157.224 83.208 156.958C83.03 156.692 82.7771 156.484 82.4813 156.362C82.1854 156.239 81.8598 156.207 81.5457 156.27C81.2317 156.332 80.9431 156.486 80.7167 156.713C80.4902 156.939 80.336 157.228 80.2735 157.542C80.2111 157.856 80.2431 158.181 80.3657 158.477C80.4882 158.773 80.6958 159.026 80.9621 159.204C81.2283 159.382 81.5414 159.477 81.8616 159.477C82.0744 159.477 82.2853 159.436 82.482 159.355C82.6787 159.274 82.8575 159.154 83.0079 159.004C83.1584 158.853 83.2777 158.675 83.3588 158.478C83.44 158.281 83.4814 158.07 83.4808 157.858Z" fill="white"/>
<path opacity="0.2" d="M43.7507 157.858C43.7507 157.697 43.7031 157.541 43.6139 157.407C43.5247 157.274 43.398 157.17 43.2498 157.109C43.1016 157.048 42.9386 157.032 42.7814 157.064C42.6243 157.096 42.48 157.173 42.367 157.287C42.2539 157.4 42.1772 157.545 42.1465 157.702C42.1158 157.86 42.1324 158.023 42.1944 158.171C42.2564 158.318 42.3609 158.445 42.4946 158.533C42.6284 158.621 42.7854 158.668 42.9457 158.667C43.0518 158.667 43.1568 158.646 43.2548 158.605C43.3528 158.565 43.4417 158.505 43.5165 158.43C43.5913 158.355 43.6505 158.265 43.6907 158.167C43.7309 158.069 43.7513 157.964 43.7507 157.858Z" fill="white"/>
<path opacity="0.2" d="M81.8617 158.667C82.3089 158.667 82.6713 158.305 82.6713 157.858C82.6713 157.41 82.3089 157.048 81.8617 157.048C81.4146 157.048 81.0521 157.41 81.0521 157.858C81.0521 158.305 81.4146 158.667 81.8617 158.667Z" fill="white"/>
<path d="M63.7422 150.764V133.372H61.065V150.764C50.6506 151.031 44.321 154.674 43.0514 155.47C42.979 155.517 42.9196 155.581 42.8786 155.656C42.8376 155.732 42.8163 155.817 42.8168 155.903V157.347C42.8168 157.482 42.8706 157.612 42.9663 157.708C43.0621 157.804 43.192 157.858 43.3274 157.858C43.4202 157.861 43.5121 157.838 43.5932 157.793C43.6743 157.747 43.7414 157.681 43.7874 157.6L44.4038 156.514C49.7997 154.794 55.4163 153.865 61.0788 153.754V156.616C61.08 156.79 61.1503 156.958 61.2744 157.081C61.3985 157.204 61.5663 157.273 61.7412 157.273H63.0936C63.2685 157.273 63.4363 157.204 63.5603 157.081C63.6844 156.958 63.7548 156.79 63.756 156.616V153.754C69.4184 153.865 75.035 154.794 80.431 156.514L81.0474 157.6C81.0934 157.681 81.1605 157.747 81.2416 157.793C81.3226 157.838 81.4145 157.861 81.5074 157.858C81.6428 157.858 81.7727 157.804 81.8684 157.708C81.9642 157.612 82.018 157.482 82.018 157.347V155.903C82.0185 155.817 81.9972 155.732 81.9562 155.656C81.9152 155.581 81.8557 155.517 81.7834 155.47C80.5 154.674 74.1566 151.031 63.7422 150.764Z" fill="#263238"/>
<path opacity="0.2" d="M63.7422 150.764V133.372H61.065V150.764C50.6506 151.031 44.321 154.674 43.0514 155.47C42.979 155.517 42.9196 155.581 42.8786 155.656C42.8376 155.732 42.8163 155.817 42.8168 155.903V157.347C42.8168 157.482 42.8706 157.612 42.9663 157.708C43.0621 157.804 43.192 157.858 43.3274 157.858C43.4202 157.861 43.5121 157.838 43.5932 157.793C43.6743 157.747 43.7414 157.681 43.7874 157.6L44.4038 156.514C49.7997 154.794 55.4163 153.865 61.0788 153.754V156.616C61.08 156.79 61.1503 156.958 61.2744 157.081C61.3985 157.204 61.5663 157.273 61.7412 157.273H63.0936C63.2685 157.273 63.4363 157.204 63.5603 157.081C63.6844 156.958 63.7548 156.79 63.756 156.616V153.754C69.4184 153.865 75.035 154.794 80.431 156.514L81.0474 157.6C81.0934 157.681 81.1605 157.747 81.2416 157.793C81.3226 157.838 81.4145 157.861 81.5074 157.858C81.6428 157.858 81.7727 157.804 81.8684 157.708C81.9642 157.612 82.018 157.482 82.018 157.347V155.903C82.0185 155.817 81.9972 155.732 81.9562 155.656C81.9152 155.581 81.8557 155.517 81.7834 155.47C80.5 154.674 74.1566 151.031 63.7422 150.764Z" fill="black"/>
<path d="M62.928 156.243H61.8792C61.6836 156.243 61.525 156.402 61.525 156.597V159.123C61.525 159.318 61.6836 159.477 61.8792 159.477H62.928C63.1236 159.477 63.2822 159.318 63.2822 159.123V156.597C63.2822 156.402 63.1236 156.243 62.928 156.243Z" fill="#263238"/>
<path opacity="0.2" d="M62.928 156.243H61.8792C61.6836 156.243 61.525 156.402 61.525 156.597V159.123C61.525 159.318 61.6836 159.477 61.8792 159.477H62.928C63.1236 159.477 63.2822 159.318 63.2822 159.123V156.597C63.2822 156.402 63.1236 156.243 62.928 156.243Z" fill="white"/>
<path d="M44.8731 116.251H79.9389C80.9039 116.251 81.8294 116.634 82.5117 117.316C83.1941 117.999 83.5775 118.924 83.5775 119.889V122.088H41.2299V119.88C41.2323 118.916 41.6174 117.992 42.3005 117.311C42.9836 116.631 43.9088 116.249 44.8731 116.251Z" fill="#FF9040"/>
<path d="M56.3317 101.797H79.6445C79.9302 101.788 80.2141 101.846 80.4737 101.966C80.7332 102.085 80.9614 102.264 81.1399 102.487C81.3185 102.71 81.4426 102.972 81.5024 103.252C81.5622 103.531 81.5561 103.821 81.4845 104.097L77.2801 122.093H76.3187L79.8699 106.305C79.9317 106.031 79.9306 105.746 79.8666 105.472C79.8026 105.198 79.6774 104.942 79.5003 104.723C79.3233 104.505 79.099 104.329 78.8443 104.21C78.5896 104.09 78.3112 104.03 78.0299 104.033H56.8101L56.3317 101.797Z" fill="#263238"/>
<path d="M65.1544 122.723V137.94C65.1532 138.173 65.0597 138.397 64.8943 138.563C64.729 138.728 64.505 138.822 64.2712 138.823H60.5406C60.4244 138.823 60.3093 138.801 60.2019 138.757C60.0944 138.713 59.9968 138.648 59.9147 138.565C59.8326 138.483 59.7675 138.386 59.7233 138.278C59.6792 138.171 59.6568 138.056 59.6574 137.94V122.723H65.1544Z" fill="#263238"/>
<path opacity="0.2" d="M65.1591 122.723H59.6575V129.043H65.1591V122.723Z" fill="black"/>
<path d="M84.7321 121.154V122.994C84.7321 123.238 84.6351 123.472 84.4626 123.645C84.2901 123.817 84.0561 123.914 83.8121 123.914H41.0321C40.7881 123.914 40.5541 123.817 40.3815 123.645C40.209 123.472 40.1121 123.238 40.1121 122.994V121.154C40.1121 120.91 40.209 120.676 40.3815 120.504C40.5541 120.331 40.7881 120.234 41.0321 120.234H83.8121C84.0561 120.234 84.2901 120.331 84.4626 120.504C84.6351 120.676 84.7321 120.91 84.7321 121.154Z" fill="#263238"/>
<path d="M65.044 122.093H40.0752C40.0752 122.093 32.1448 108.9 32.1448 87.1004V79.0918C32.1448 77.5058 32.7748 75.9848 33.8963 74.8633C35.0177 73.7418 36.5388 73.1118 38.1248 73.1118H48.7048C50.2607 73.104 51.7579 73.7058 52.8756 74.7883C53.9933 75.8707 54.6427 77.3478 54.6848 78.9032C54.9562 90.1548 56.6122 114.48 65.044 122.093Z" fill="#263238"/>
<path opacity="0.2" d="M59.5516 122.093H41.2068C40.8588 122.093 40.5174 121.998 40.2197 121.818C39.922 121.638 39.6795 121.38 39.5186 121.071C37.7154 117.589 32.1586 105.362 32.1586 87.1004V79.0918C32.1586 77.5058 32.7886 75.9848 33.9101 74.8633C35.0315 73.7418 36.5526 73.1118 38.1386 73.1118H47.288C48.8418 73.111 50.335 73.7151 51.4512 74.7961C52.5674 75.8771 53.219 77.3501 53.268 78.9032C53.544 88.9358 54.8918 109.42 61.1892 119.103C61.3913 119.393 61.5084 119.735 61.5272 120.088C61.546 120.442 61.4659 120.794 61.2958 121.104C61.1257 121.415 60.8723 121.672 60.5642 121.847C60.2561 122.021 59.9054 122.106 59.5516 122.093Z" fill="white"/>
<path opacity="0.2" d="M84.7321 121.154V122.994C84.7321 123.238 84.6351 123.472 84.4626 123.645C84.2901 123.817 84.0561 123.914 83.8121 123.914H64.6301C64.2974 123.913 63.9787 123.78 63.7434 123.545C63.5082 123.31 63.3755 122.991 63.3743 122.658V121.495C63.3743 121.162 63.5066 120.842 63.7421 120.607C63.9776 120.371 64.297 120.239 64.6301 120.239H83.8075C83.9283 120.238 84.048 120.261 84.1599 120.307C84.2717 120.353 84.3735 120.42 84.4594 120.505C84.5452 120.59 84.6135 120.691 84.6603 120.802C84.7071 120.914 84.7315 121.033 84.7321 121.154Z" fill="black"/>
<path d="M145.216 39.657C145.306 39.657 145.37 39.6259 145.409 39.5637C145.467 39.4688 145.496 39.2347 145.496 38.8613V38.2757C145.496 38.0532 145.474 37.8876 145.43 37.7787C145.387 37.6698 145.315 37.6153 145.216 37.6153C145.146 37.6153 145.091 37.6402 145.052 37.69C144.982 37.7802 144.947 38.0027 144.947 38.3573V38.9663C144.947 39.2246 144.967 39.4042 145.006 39.5053C145.046 39.6064 145.116 39.657 145.216 39.657ZM145.456 40.756C145.254 40.756 145.11 40.7 145.024 40.588C144.939 40.4776 144.892 40.2909 144.884 40.028C144.789 40.0124 144.704 39.9876 144.628 39.9533C144.551 39.9191 144.486 39.8794 144.432 39.8343C144.377 39.7877 144.33 39.7317 144.289 39.6663C144.249 39.601 144.215 39.5326 144.189 39.461C144.164 39.3894 144.144 39.3086 144.128 39.2183C144.113 39.1266 144.102 39.0356 144.096 38.9453C144.091 38.8551 144.089 38.754 144.089 38.642C144.089 38.4553 144.098 38.2928 144.117 38.1543C144.137 38.0159 144.173 37.886 144.226 37.7647C144.279 37.6418 144.349 37.5422 144.436 37.466C144.525 37.3898 144.639 37.3299 144.777 37.2863C144.917 37.2428 145.082 37.221 145.272 37.221C145.402 37.221 145.52 37.2334 145.624 37.2583C145.728 37.2817 145.818 37.3143 145.892 37.3563C145.967 37.3983 146.032 37.4528 146.086 37.5197C146.142 37.5866 146.186 37.6581 146.219 37.7343C146.253 37.809 146.28 37.8969 146.301 37.998C146.321 38.0991 146.335 38.1994 146.343 38.299C146.35 38.3986 146.354 38.5113 146.354 38.6373C146.354 38.7867 146.348 38.9204 146.336 39.0387C146.323 39.1553 146.301 39.2673 146.268 39.3747C146.235 39.4804 146.193 39.5722 146.14 39.65C146.088 39.7278 146.021 39.7962 145.939 39.8553C145.858 39.9129 145.762 39.958 145.652 39.9907V40.0023C145.652 40.1268 145.67 40.2092 145.706 40.2497C145.743 40.2901 145.8 40.3103 145.876 40.3103C145.898 40.3103 145.918 40.308 145.937 40.3033C145.957 40.3002 145.975 40.2956 145.99 40.2893C146.006 40.2831 146.021 40.2753 146.035 40.266V40.5833C146.033 40.5849 146.031 40.5872 146.028 40.5903C145.9 40.7008 145.71 40.756 145.456 40.756ZM147.654 40.049C147.494 40.049 147.351 40.0334 147.227 40.0023C147.104 39.9712 147.003 39.9292 146.923 39.8763C146.846 39.8234 146.781 39.7581 146.73 39.6803C146.68 39.601 146.645 39.5178 146.625 39.4307C146.605 39.3436 146.594 39.2471 146.594 39.1413V37.2653H147.425V39.0363C147.425 39.2339 147.445 39.37 147.486 39.4447C147.528 39.5178 147.588 39.5543 147.668 39.5543C147.711 39.5543 147.749 39.5473 147.782 39.5333C147.815 39.5178 147.845 39.4921 147.873 39.4563C147.901 39.419 147.922 39.3661 147.936 39.2977C147.952 39.2277 147.959 39.1429 147.959 39.0433V37.2653H148.697V39.1553C148.697 39.2596 148.687 39.3537 148.669 39.4377C148.652 39.5217 148.619 39.6033 148.571 39.6827C148.524 39.7604 148.462 39.8258 148.384 39.8787C148.308 39.93 148.208 39.9712 148.083 40.0023C147.96 40.0334 147.817 40.049 147.654 40.049ZM149.017 40V37.2653H149.813V40H149.017ZM150.073 40V39.517L150.887 38.0283L151.074 37.809L150.15 37.8603V37.2653H151.937V37.6643L151.057 39.2813L150.896 39.4633L151.965 39.412V40H150.073Z" fill="white"/>
</svg>
