<svg width="320" height="64" viewBox="0 0 320 64" fill="none" xmlns="http://www.w3.org/2000/svg">
<path d="M9.80555 35.9817V44.1025C9.80555 44.4138 9.68188 44.7124 9.46173 44.9324C9.2417 45.1526 8.94315 45.2762 8.6318 45.2762C8.32056 45.2762 8.02202 45.1526 7.80187 44.9324C7.58172 44.7124 7.45806 44.4138 7.45806 44.1025V35.993C7.78491 36.2317 8.17668 36.3649 8.58126 36.3749C9.02223 36.3874 9.45432 36.2487 9.80555 35.9817ZM19.802 33.6343C19.5042 33.6343 19.2184 33.7526 19.0078 33.9632C18.7972 34.1738 18.6788 34.4596 18.6788 34.7575V36.1727C18.6788 36.484 18.8025 36.7826 19.0226 37.0026C19.2427 37.2228 19.5412 37.3464 19.8526 37.3464C20.1639 37.3464 20.4625 37.2228 20.6825 37.0026C20.9027 36.7826 21.0263 36.484 21.0263 36.1727V34.8136C21.0351 34.6526 21.009 34.4915 20.9499 34.3414C20.8909 34.1914 20.8002 34.0557 20.684 33.9438C20.5678 33.8319 20.4289 33.7464 20.2768 33.6929C20.1246 33.6395 19.9627 33.6195 19.802 33.6343ZM4.90839 39.0593C4.50423 39.0472 4.11297 38.9142 3.78519 38.6774V46.8206C3.78519 47.1335 3.90944 47.4335 4.13062 47.6546C4.35179 47.8758 4.65176 48 4.96455 48C5.27734 48 5.57731 47.8758 5.79848 47.6546C6.01966 47.4335 6.14391 47.1335 6.14391 46.8206V38.7336C5.77713 38.9707 5.34437 39.0848 4.90839 39.0593ZM16.1404 31.1969C15.9882 31.1893 15.8361 31.2127 15.6933 31.2658C15.5505 31.3188 15.42 31.4003 15.3096 31.5053C15.1993 31.6105 15.1115 31.7368 15.0516 31.8769C14.9917 32.017 14.9608 32.1678 14.961 32.3201V38.5763C14.961 38.8892 15.0853 39.1892 15.3064 39.4103C15.5277 39.6315 15.8276 39.7557 16.1404 39.7557C16.4532 39.7557 16.7532 39.6315 16.9744 39.4103C17.1955 39.1892 17.3198 38.8892 17.3198 38.5763V32.3987C17.3287 32.2367 17.3025 32.0746 17.2427 31.9236C17.183 31.7727 17.0913 31.6364 16.9738 31.5243C16.8563 31.4122 16.716 31.3269 16.5625 31.2743C16.409 31.2216 16.2458 31.2029 16.0842 31.2194L16.1404 31.1969ZM12.4114 33.6006C11.9883 33.5976 11.5765 33.4643 11.232 33.2187V41.3843C11.232 41.6972 11.3562 41.9972 11.5774 42.2183C11.7987 42.4395 12.0986 42.5637 12.4114 42.5637C12.7242 42.5637 13.0241 42.4395 13.2453 42.2183C13.4665 41.9972 13.5907 41.6972 13.5907 41.3843V33.2299C13.2345 33.4953 12.7994 33.6337 12.3552 33.623L12.4114 33.6006ZM2.35872 39.8568V17.0446C2.35577 16.7665 2.24322 16.5008 2.04554 16.3053C1.84786 16.1097 1.581 16 1.30291 16H1.05581C0.777727 16 0.510866 16.1097 0.313182 16.3053C0.115499 16.5008 0.00295402 16.7665 0 17.0446V39.8568C0 40.1368 0.111242 40.4054 0.30924 40.6034C0.507238 40.8014 0.775795 40.9126 1.05581 40.9126H1.30291C1.58294 40.9126 1.85148 40.8014 2.04948 40.6034C2.24749 40.4054 2.35872 40.1368 2.35872 39.8568ZM5.03194 38.1945H4.78484C4.50482 38.1945 4.23627 38.0833 4.03827 37.8852C3.84027 37.6872 3.72903 37.4187 3.72903 37.1386V19.7627C3.73199 19.4847 3.84453 19.219 4.04221 19.0234C4.23989 18.8278 4.50675 18.7181 4.78484 18.7181H5.03194C5.31002 18.7181 5.57688 18.8278 5.77457 19.0234C5.97225 19.219 6.0848 19.4847 6.08775 19.7627V37.1611C6.08775 37.4411 5.97651 37.7097 5.77851 37.9077C5.58051 38.1057 5.31195 38.2169 5.03194 38.2169V38.1945ZM8.74974 35.5212H8.4914C8.21442 35.5212 7.94867 35.4112 7.75278 35.2153C7.5569 35.0194 7.44682 34.7538 7.44682 34.4767V22.4584C7.44536 22.3203 7.47131 22.1832 7.52309 22.0552C7.57487 21.9272 7.65158 21.8107 7.74874 21.7125C7.8459 21.6143 7.96159 21.5364 8.08907 21.4832C8.21655 21.43 8.35325 21.4026 8.4914 21.4026H8.74974C9.02784 21.4056 9.29348 21.5181 9.48903 21.7158C9.68469 21.9135 9.79431 22.1803 9.79431 22.4584V34.4767C9.79431 34.7538 9.68424 35.0194 9.48835 35.2153C9.29247 35.4112 9.02683 35.5212 8.74974 35.5212ZM12.4675 32.7694H12.2317C11.9536 32.7694 11.6867 32.6598 11.489 32.4641C11.2913 32.2686 11.1788 32.0029 11.1759 31.7248V25.2552C11.1666 25.111 11.1871 24.9664 11.2361 24.8304C11.2849 24.6945 11.3613 24.5699 11.4602 24.4647C11.5592 24.3593 11.6787 24.2755 11.8115 24.2182C11.9441 24.1611 12.0871 24.1316 12.2317 24.132H12.4788C12.7588 24.132 13.0273 24.2432 13.2254 24.4412C13.4234 24.6392 13.5346 24.9078 13.5346 25.1878V31.7024C13.536 31.842 13.5099 31.9805 13.4574 32.1098C13.4051 32.2392 13.3276 32.357 13.2293 32.4562C13.1311 32.5554 13.0143 32.6342 12.8854 32.688C12.7565 32.7418 12.6184 32.7694 12.4788 32.7694H12.4675ZM16.1966 30.3545H15.9495C15.6694 30.3545 15.4009 30.2433 15.2029 30.0453C15.0048 29.8473 14.8936 29.5787 14.8936 29.2987V27.6251C14.8966 27.347 15.0091 27.0814 15.2068 26.8858C15.4045 26.6902 15.6714 26.5806 15.9495 26.5806H16.1966C16.4747 26.5806 16.7415 26.6902 16.9392 26.8858C17.1369 27.0814 17.2494 27.347 17.2524 27.6251V29.2987C17.2524 29.5768 17.1427 29.8437 16.9471 30.0414C16.7515 30.239 16.4859 30.3516 16.2078 30.3545H16.1966Z" fill="#475569"/>
<path d="M34.6647 37.293L38.0631 22.9375H39.9615L40.3951 25.3281L36.774 40H34.735L34.6647 37.293ZM32.9186 22.9375L35.7311 37.293L35.4967 40H33.2233L29.4381 22.9375H32.9186ZM43.3834 37.2344L46.1608 22.9375H49.6412L45.8678 40H43.5944L43.3834 37.2344ZM41.028 22.9375L44.4498 37.3516L44.3561 40H42.317L38.6725 25.3164L39.1412 22.9375H41.028ZM57.9733 25.8555L53.3326 40H49.5944L55.9342 22.9375H58.3131L57.9733 25.8555ZM61.8287 40L57.1764 25.8555L56.8014 22.9375H59.2037L65.5787 40H61.8287ZM61.6178 33.6484V36.4023H52.6061V33.6484H61.6178ZM72.3522 36.4375L76.3717 22.9375H80.2858L74.3444 40H71.7662L72.3522 36.4375ZM68.649 22.9375L72.6569 36.4375L73.2662 40H70.6647L64.7584 22.9375H68.649ZM93.3287 37.2578V40H84.2467V37.2578H93.3287ZM85.3951 22.9375V40H81.8795V22.9375H85.3951ZM92.1451 29.8867V32.5586H84.2467V29.8867H92.1451ZM93.317 22.9375V25.6914H84.2467V22.9375H93.317ZM104.262 35.5352C104.262 35.2305 104.215 34.957 104.122 34.7148C104.036 34.4648 103.872 34.2383 103.63 34.0352C103.387 33.8242 103.047 33.6172 102.61 33.4141C102.172 33.2109 101.606 33 100.911 32.7812C100.137 32.5312 99.403 32.25 98.7076 31.9375C98.0201 31.625 97.4108 31.2617 96.8795 30.8477C96.3561 30.4258 95.942 29.9375 95.6373 29.3828C95.3405 28.8281 95.192 28.1836 95.192 27.4492C95.192 26.7383 95.3483 26.0938 95.6608 25.5156C95.9733 24.9297 96.4108 24.4297 96.9733 24.0156C97.5358 23.5938 98.1998 23.2695 98.9655 23.043C99.7389 22.8164 100.587 22.7031 101.508 22.7031C102.766 22.7031 103.864 22.9297 104.801 23.3828C105.739 23.8359 106.465 24.457 106.981 25.2461C107.505 26.0352 107.766 26.9375 107.766 27.9531H104.274C104.274 27.4531 104.169 27.0156 103.958 26.6406C103.755 26.2578 103.442 25.957 103.02 25.7383C102.606 25.5195 102.083 25.4102 101.45 25.4102C100.84 25.4102 100.333 25.5039 99.9264 25.6914C99.5201 25.8711 99.2155 26.1172 99.0123 26.4297C98.8092 26.7344 98.7076 27.0781 98.7076 27.4609C98.7076 27.75 98.778 28.0117 98.9186 28.2461C99.067 28.4805 99.2858 28.6992 99.5748 28.9023C99.8639 29.1055 100.219 29.2969 100.641 29.4766C101.063 29.6562 101.551 29.832 102.106 30.0039C103.036 30.2852 103.852 30.6016 104.555 30.9531C105.266 31.3047 105.86 31.6992 106.337 32.1367C106.813 32.5742 107.172 33.0703 107.415 33.625C107.657 34.1797 107.778 34.8086 107.778 35.5117C107.778 36.2539 107.633 36.918 107.344 37.5039C107.055 38.0898 106.637 38.5859 106.09 38.9922C105.544 39.3984 104.891 39.707 104.133 39.918C103.376 40.1289 102.528 40.2344 101.59 40.2344C100.747 40.2344 99.9147 40.125 99.0944 39.9062C98.274 39.6797 97.528 39.3398 96.8561 38.8867C96.192 38.4336 95.6608 37.8555 95.2623 37.1523C94.8639 36.4492 94.6647 35.6172 94.6647 34.6562H98.192C98.192 35.1875 98.274 35.6367 98.4381 36.0039C98.6022 36.3711 98.8326 36.668 99.1295 36.8945C99.4342 37.1211 99.7936 37.2852 100.208 37.3867C100.63 37.4883 101.09 37.5391 101.59 37.5391C102.2 37.5391 102.7 37.4531 103.09 37.2812C103.489 37.1094 103.782 36.8711 103.969 36.5664C104.165 36.2617 104.262 35.918 104.262 35.5352Z" fill="#475569"/>
</svg>
